<?xml version="1.0" standalone="no"?>
<!DOCTYPE svg PUBLIC "-//W3C//DTD SVG 20010904//EN"
 "http://www.w3.org/TR/2001/REC-SVG-20010904/DTD/svg10.dtd">
<svg version="1.0" xmlns="http://www.w3.org/2000/svg"
 width="265.000000pt" height="190.000000pt" viewBox="0 0 265.000000 190.000000"
 preserveAspectRatio="xMidYMid meet">

<g transform="translate(0.000000,190.000000) scale(0.100000,-0.100000)"
fill="#000000" stroke="none">
<path d="M935 1552 l-380 -237 48 -3 c48 -3 55 1 378 202 181 113 334 206 339
206 6 0 158 -92 337 -205 312 -196 329 -205 377 -205 30 0 46 4 41 9 -14 13
-735 462 -749 466 -6 2 -182 -103 -391 -233z"/>
<path d="M1008 1491 c10 -6 13 -28 10 -80 -3 -66 -2 -71 18 -71 17 0 20 5 16
30 -4 27 -1 30 22 30 28 0 66 31 66 54 0 26 -42 46 -95 46 -31 0 -45 -3 -37
-9z m92 -21 c14 -26 -3 -60 -30 -60 -17 0 -20 7 -20 40 0 33 3 40 20 40 10 0
24 -9 30 -20z"/>
<path d="M1168 1491 c10 -6 13 -28 10 -80 -2 -58 0 -71 12 -71 12 0 14 13 12
71 -3 52 0 74 10 80 8 6 1 9 -22 9 -23 0 -30 -3 -22 -9z"/>
<path d="M1248 1491 c10 -6 13 -28 10 -80 -3 -66 -1 -71 17 -71 19 0 20 6 17
75 -3 71 -2 75 18 75 26 0 37 -26 21 -52 -9 -15 -9 -22 4 -34 19 -19 19 -29
-1 -48 -16 -16 -8 -21 20 -10 25 9 21 61 -5 69 l-21 7 21 15 c26 18 27 39 2
53 -24 12 -122 14 -103 1z"/>
<path d="M1403 1489 c13 -8 17 -24 17 -74 0 -41 -4 -65 -12 -68 -7 -3 -1 -6
13 -6 23 -1 25 2 21 29 -4 26 -1 30 20 30 32 0 68 27 68 50 0 30 -39 50 -95
50 -39 -1 -46 -3 -32 -11z m87 -19 c14 -26 -3 -60 -30 -60 -17 0 -20 7 -20 40
0 33 3 40 20 40 10 0 24 -9 30 -20z"/>
<path d="M1558 1488 c16 -16 16 -135 0 -141 -7 -3 -1 -6 13 -6 23 -1 25 2 21
29 -4 26 -1 30 20 30 32 0 68 27 68 50 0 28 -39 50 -89 50 -35 0 -42 -3 -33
-12z m86 -20 c14 -23 -3 -52 -33 -56 -19 -3 -21 1 -21 38 0 37 2 41 21 38 12
-2 27 -11 33 -20z"/>
<path d="M172 1258 c3 -22 6 -23 141 -26 129 -2 137 -4 137 -22 0 -11 5 -20
11 -20 24 0 41 -73 35 -150 -3 -41 -7 -122 -8 -180 l-2 -105 45 -16 c24 -9 56
-19 72 -23 l27 -6 -1 92 c0 51 -4 144 -8 207 -8 109 0 171 21 171 5 0 13 11
18 25 9 25 10 25 135 25 111 0 126 -2 132 -17 4 -10 15 -29 25 -42 10 -13 15
-27 12 -32 -3 -5 -2 -9 3 -9 4 0 5 -39 1 -87 -3 -49 -7 -152 -7 -230 -1 -122
1 -143 14 -143 9 0 41 -9 71 -20 l56 -19 -3 263 c-4 231 -2 266 12 282 9 11
19 27 22 37 6 15 24 17 192 17 136 0 185 -3 185 -12 0 -6 10 -22 23 -36 22
-24 22 -25 19 -287 l-4 -263 54 19 c29 10 61 18 71 19 15 0 17 13 16 138 0 75
-4 178 -8 227 -4 50 -5 92 -2 95 4 3 7 12 9 20 2 8 9 22 16 30 7 8 16 23 19
33 6 15 21 17 127 17 106 0 121 -2 127 -17 4 -10 14 -29 24 -41 17 -22 18 -42
12 -244 l-5 -221 28 7 c16 4 48 14 72 23 l42 16 -1 76 c0 42 -4 126 -8 186 -4
61 -5 112 -2 115 3 3 8 14 9 25 2 11 8 22 14 24 5 2 13 14 18 27 9 24 11 24
149 24 142 0 151 2 151 41 0 5 -461 9 -1156 9 l-1155 0 3 -22z"/>
<path d="M202 695 c3 -50 9 -98 13 -107 14 -35 139 -40 432 -17 183 14 258 9
355 -21 88 -27 153 -73 211 -149 26 -34 47 -59 47 -56 0 3 -11 30 -25 60 -62
130 -195 193 -445 210 -117 8 -324 40 -405 62 -76 20 -106 35 -151 76 l-37 32
5 -90z"/>
<path d="M2396 739 c-34 -26 -75 -45 -127 -59 -98 -26 -286 -56 -409 -65 -121
-8 -228 -29 -284 -54 -84 -37 -167 -133 -190 -221 -5 -18 -1 -15 13 11 38 68
110 137 181 173 121 60 186 65 562 36 135 -10 260 -2 279 17 10 10 33 164 27
185 -2 10 -18 3 -52 -23z"/>
</g>
</svg>
